<svg width="32" height="32" viewBox="0 0 32 32" fill="none" xmlns="http://www.w3.org/2000/svg">
<path d="M20.0655 21.6765L20.6081 27.6519L26.5835 27.1093" stroke="black" stroke-width="2" stroke-linecap="round" stroke-linejoin="round"/>
<path d="M23.0429 7.55032C24.1525 8.47521 25.0691 9.6096 25.7403 10.8887C26.4116 12.1679 26.8243 13.5667 26.9549 15.0053C27.0855 16.4439 26.9315 17.8942 26.5017 19.2733C26.0718 20.6524 25.3746 21.9333 24.4497 23.0429L20.6081 27.6519" stroke="black" stroke-width="2" stroke-linecap="round" stroke-linejoin="round"/>
<path d="M11.9345 10.3235L11.3919 4.34808L5.41649 4.89066" stroke="black" stroke-width="2" stroke-linecap="round" stroke-linejoin="round"/>
<path d="M8.9571 24.4496C7.84747 23.5247 6.93088 22.3903 6.25966 21.1112C5.58843 19.8321 5.17573 18.4333 5.0451 16.9947C4.91447 15.556 5.06847 14.1058 5.49832 12.7267C5.92817 11.3476 6.62545 10.0666 7.55034 8.957L11.3919 4.34808" stroke="black" stroke-width="2" stroke-linecap="round" stroke-linejoin="round"/>
</svg>
