<?xml version="1.0" encoding="UTF-8"?>
<svg version="1.1" xmlns="http://www.w3.org/2000/svg" width="1080" height="1080">
<path d="M0 0 C356.4 0 712.8 0 1080 0 C1080 356.4 1080 712.8 1080 1080 C723.6 1080 367.2 1080 0 1080 C0 723.6 0 367.2 0 0 Z " fill="#FEFEFE" transform="translate(0,0)"/>
<path d="M0 0 C1.4414618 -0.00467997 1.4414618 -0.00467997 2.91204405 -0.00945449 C6.11073785 -0.01738942 9.30923957 -0.01112844 12.50793457 -0.00482178 C14.80990204 -0.00753364 17.11186865 -0.01109566 19.41383362 -0.01544189 C25.65133105 -0.02454492 31.88876219 -0.02103021 38.12626076 -0.01468372 C44.6603475 -0.00961296 51.19442865 -0.01431817 57.72851562 -0.01745605 C69.40277749 -0.02172473 81.07701152 -0.01511804 92.75126857 -0.00493738 C103.32398073 0.00399741 113.89664898 0.00244514 124.46936035 -0.0067749 C136.76399982 -0.01749164 149.05861129 -0.02145466 161.3532548 -0.01555037 C167.85525981 -0.01243564 174.35723461 -0.01200774 180.85923767 -0.01862335 C186.97255394 -0.02440923 193.08578742 -0.02037708 199.19909477 -0.00883484 C201.44000041 -0.00619491 203.68091304 -0.00694192 205.92181587 -0.01136017 C208.98581247 -0.01684335 212.04954548 -0.00994778 215.11352539 0 C215.99554359 -0.00446144 216.87756179 -0.00892289 217.78630781 -0.01351953 C232.19094918 0.07688999 245.73751728 5.02158421 256.0567627 15.25396729 C269.23919288 30.69428776 270.35995459 45.52629567 270.31555176 64.98883057 C270.3182649 66.98715339 270.32182764 68.98547522 270.32617188 70.98379517 C270.3352585 76.38855158 270.33176733 81.7932313 270.3254137 87.19798899 C270.3203358 92.86369432 270.32505 98.52939327 270.32818604 104.19509888 C270.33181987 113.7057818 270.32704125 123.21643362 270.31750488 132.72711182 C270.30661521 143.71416277 270.310152 154.70113951 270.32115769 165.68818867 C270.3302397 175.13387884 270.33151156 184.5795467 270.32628036 194.02523983 C270.3231665 199.66144265 270.32273541 205.29761062 270.32935333 210.93381119 C270.33513965 216.23129112 270.33110631 221.52867553 270.31956482 226.82614517 C270.31692539 228.76753582 270.31767105 230.70893454 270.32209015 232.65032196 C270.32757521 235.30518688 270.32067574 237.95974782 270.31072998 240.61459351 C270.31519142 241.37822303 270.31965287 242.14185255 270.32424951 242.92862236 C270.2319582 255.67607466 265.40306076 266.77836039 257.0567627 276.25396729 C256.49859863 276.89463135 255.94043457 277.53529541 255.36535645 278.19537354 C248.13554149 285.96197289 236.72484681 292.18459013 226.01793098 292.76012516 C224.21071623 292.78308923 222.40314384 292.78482198 220.59585571 292.76863098 C219.59122437 292.77557651 218.58659303 292.78252204 217.55151832 292.78967804 C214.21075039 292.8078629 210.87069944 292.79770718 207.52990723 292.78741455 C205.12428255 292.79447733 202.71866232 292.80322385 200.31304932 292.81352234 C194.47226252 292.83365666 188.63169841 292.83505367 182.79088677 292.82689679 C178.04006505 292.82057954 173.28930001 292.82174958 168.53847885 292.82816887 C167.86055956 292.82907052 167.18264027 292.82997218 166.48417797 292.83090116 C165.10668007 292.83275249 163.72918219 292.83461505 162.35168432 292.83648872 C149.45318961 292.85304283 136.55480448 292.84436875 123.65631638 292.82750314 C111.87648516 292.81281206 100.09690915 292.82743035 88.31711079 292.8562733 C76.19845549 292.88572314 64.07991774 292.89662311 51.96122825 292.8870911 C50.58837821 292.88606863 49.21552815 292.88507402 47.84267807 292.88410759 C46.82967902 292.883393 46.82967902 292.883393 45.79621533 292.88266398 C41.05678713 292.88050701 36.31747113 292.89026568 31.57806778 292.90487862 C25.18717119 292.92327481 18.79674756 292.91722806 12.40587616 292.89267921 C10.06625223 292.88768385 7.72659202 292.89112774 5.38699722 292.90382767 C-12.60954744 292.9937568 -25.42247112 290.9312488 -39.1307373 278.22662354 C-58.46428697 257.97765959 -53.9432373 232.52817165 -53.9432373 205.25396729 C-82.9832373 205.25396729 -112.0232373 205.25396729 -141.9432373 205.25396729 C-141.9432373 160.04396729 -141.9432373 114.83396729 -141.9432373 68.25396729 C-132.7032373 68.25396729 -123.4632373 68.25396729 -113.9432373 68.25396729 C-113.9432373 105.87396729 -113.9432373 143.49396729 -113.9432373 182.25396729 C-94.1432373 182.25396729 -74.3432373 182.25396729 -53.9432373 182.25396729 C-53.97804199 172.50349854 -54.01284668 162.75302979 -54.04870605 152.70709229 C-54.06404036 146.5182878 -54.07860711 140.32949716 -54.08972168 134.14068604 C-54.10749292 124.32439448 -54.12833602 114.50818042 -54.16955566 104.69195557 C-54.199567 97.54148444 -54.21883802 90.39107645 -54.22550279 83.24054408 C-54.22939529 79.45847296 -54.23846821 75.67658235 -54.26042747 71.8945694 C-54.28097866 68.32573227 -54.28703405 64.7571479 -54.28256035 61.18825722 C-54.28376319 59.27254108 -54.2998069 57.35685169 -54.3164978 55.44120789 C-54.26138362 39.8152271 -50.16021102 26.99604056 -39.3338623 15.57818604 C-27.84662466 4.41003832 -15.90592506 -0.08045569 0 0 Z " fill="#014AAD" transform="translate(677.9432373046875,407.74603271484375)"/>
<path d="M0 0 C8.91 0 17.82 0 27 0 C27 17.16 27 34.32 27 52 C47.46 52 67.92 52 89 52 C89 34.84 89 17.68 89 0 C97.91 0 106.82 0 116 0 C116 45.21 116 90.42 116 137 C107.09 137 98.18 137 89 137 C89 116.21 89 95.42 89 74 C68.54 74 48.08 74 27 74 C27 94.79 27 115.58 27 137 C18.09 137 9.18 137 0 137 C0 91.79 0 46.58 0 0 Z " fill="#010101" transform="translate(385,476)"/>
<path d="M0 0 C3.96370075 2.9506143 6.06499834 4.74718418 8.3203125 9.2578125 C4.3603125 14.8678125 0.4003125 20.4778125 -3.6796875 26.2578125 C-8.20706024 25.35233795 -9.49293054 24.94128712 -12.9296875 22.3828125 C-22.81391913 15.51327152 -33.89791847 14.52478388 -45.6796875 15.2578125 C-49.89372218 16.08884108 -53.067556 17.86247758 -56.6796875 20.1953125 C-59.81649147 24.99854358 -59.4836727 29.69176114 -58.6796875 35.2578125 C-56.09967867 40.64217876 -51.04239007 42.29392517 -45.6796875 44.2578125 C-41.2971037 45.41169557 -36.87175904 46.30233463 -32.4296875 47.1953125 C-1.70573397 53.72688442 -1.70573397 53.72688442 7.93359375 66.83984375 C12.38385252 74.59959073 13.96265202 80.71013051 13.8203125 89.6953125 C13.84351563 91.15420898 13.84351563 91.15420898 13.8671875 92.64257812 C13.8060586 104.08132444 9.50191174 113.13994109 1.42578125 121.1328125 C-12.06501549 132.74641118 -30.085045 133.34351912 -46.96386719 132.08789062 C-62.79773788 130.48248247 -76.79764423 124.04853963 -87.6796875 112.2578125 C-88.30230469 111.61328125 -88.92492187 110.96875 -89.56640625 110.3046875 C-90.6796875 108.2578125 -90.6796875 108.2578125 -90.25 105.96484375 C-88.09021767 102.2416369 -85.40535292 99.15644489 -82.5546875 95.9453125 C-81.99136719 95.30013672 -81.42804688 94.65496094 -80.84765625 93.99023438 C-79.46427242 92.40754949 -78.07277705 90.83196109 -76.6796875 89.2578125 C-73.81705484 89.59744688 -72.13988627 89.80642136 -70.046875 91.859375 C-69.55445313 92.52710938 -69.06203125 93.19484375 -68.5546875 93.8828125 C-62.03735471 101.77744656 -53.48827561 106.49350307 -43.29516602 107.49121094 C-40.75317771 107.63175416 -38.22534861 107.67795572 -35.6796875 107.6953125 C-34.40351563 107.74461914 -34.40351563 107.74461914 -33.1015625 107.79492188 C-26.78199727 107.84823109 -22.54149874 106.34804953 -17.6796875 102.2578125 C-14.06366072 97.39877652 -13.84098832 92.10964539 -14.6796875 86.2578125 C-17.1052161 81.01867072 -20.58742096 78.65583276 -25.6796875 76.2578125 C-28.61831778 75.24042282 -31.5958372 74.48757431 -34.6171875 73.7578125 C-35.44621582 73.54624512 -36.27524414 73.33467773 -37.12939453 73.11669922 C-41.08005938 72.11449462 -45.03807678 71.16853803 -49.01953125 70.296875 C-62.02623633 67.39804268 -74.05026515 62.81469611 -81.6796875 51.2578125 C-86.95026131 40.91700833 -88.53538172 29.27195054 -85.5546875 17.9453125 C-82.48085061 9.10981855 -75.63334929 1.67241264 -67.5546875 -2.9609375 C-65.29613532 -4.02568353 -63.03127216 -4.90399891 -60.6796875 -5.7421875 C-59.93976563 -6.04125 -59.19984375 -6.3403125 -58.4375 -6.6484375 C-40.84571711 -12.71844565 -15.51674128 -10.08814375 0 0 Z " fill="#020202" transform="translate(211.6796875,482.7421875)"/>
<path d="M0 0 C1.3303125 0.86625 1.3303125 0.86625 2.6875 1.75 C7.30542022 6.24311157 11.47909026 12.03922819 14 18 C14 18.99 14 19.98 14 21 C11.37042171 23.28389261 8.29054159 24.95444986 5.3125 26.75 C4.08756836 27.52923828 4.08756836 27.52923828 2.83789062 28.32421875 C2.04189453 28.81019531 1.24589844 29.29617188 0.42578125 29.796875 C-0.30213623 30.24385742 -1.03005371 30.69083984 -1.7800293 31.15136719 C-4.60326024 32.23060955 -6.15914798 31.94205507 -9 31 C-10.44921875 28.92578125 -10.44921875 28.92578125 -11.6875 26.3125 C-15.53660001 19.39599382 -21.3347488 15.93314308 -28.8125 13.625 C-39.71212985 11.51539422 -49.66822308 12.76386223 -59.28515625 18.3203125 C-67.79361715 24.14105397 -71.65395589 32.85430263 -73.52124023 42.76708984 C-76.10535095 60.21675534 -75.62669895 79.73476525 -65.765625 94.875 C-60.6707399 101.00689711 -53.72612928 104.42706878 -45.80395508 105.21972656 C-32.24194786 106.01173245 -32.24194786 106.01173245 -20 101 C-19.35933594 100.56429687 -18.71867187 100.12859375 -18.05859375 99.6796875 C-11.74576337 94.85610521 -9.23603371 88.45344571 -7 81 C-0.89395661 81.44130406 3.22459587 83.44811172 8.4375 86.5625 C9.16904297 86.98724609 9.90058594 87.41199219 10.65429688 87.84960938 C12.44213758 88.88959514 14.22192662 89.94340177 16 91 C11.15196998 106.00037523 4.36663597 117.08293657 -9.875 124.375 C-10.52259277 124.70902832 -11.17018555 125.04305664 -11.83740234 125.38720703 C-27.94847855 133.15683251 -48.47889897 131.75981555 -65 126 C-79.25511768 120.63924837 -89.7590398 110.6153747 -96.17578125 96.93261719 C-104.93571489 76.39244103 -107.1421703 49.0990605 -99 28 C-91.86717539 10.63044152 -80.16515472 -0.76652343 -63 -8 C-43.31807336 -15.96313244 -17.07540364 -12.24599655 0 0 Z " fill="#020202" transform="translate(347,485)"/>
<path d="M0 0 C6.27 0 12.54 0 19 0 C19 12.87 19 25.74 19 39 C22.3 36.36 25.6 33.72 29 31 C37.47973563 28.17342146 46.45572356 27.55478085 54.94140625 30.90234375 C63.34724614 35.384395 67.97072686 42.32515547 71.11328125 51.11328125 C72.23533462 56.0315328 72.34256752 60.65892277 72.3125 65.6875 C72.30686035 66.66485107 72.3012207 67.64220215 72.29541016 68.64916992 C72.10876724 79.76366293 70.57475258 89.42320616 63 98 C55.38604955 104.94213129 48.88440153 106.50271328 38.6640625 106.2421875 C29.91942628 105.66418383 25.1896161 102.00853691 19 96 C19 98.97 19 101.94 19 105 C12.73 105 6.46 105 0 105 C0 70.35 0 35.7 0 0 Z " fill="#FBFCFD" transform="translate(839,502)"/>
<path d="M0 0 C8.91 0 17.82 0 27 0 C27 37.95 27 75.9 27 115 C47.13 115 67.26 115 88 115 C88 122.26 88 129.52 88 137 C58.96 137 29.92 137 0 137 C0 91.79 0 46.58 0 0 Z " fill="#020202" transform="translate(536,476)"/>
<path d="M0 0 C6.27 0 12.54 0 19 0 C19 13.2 19 26.4 19 40 C22.63 37.03 26.26 34.06 30 31 C37.86261646 27.85495342 46.42154754 27.72954438 54.5 30.5 C60.50256665 33.29395783 63.76686809 37.71808559 66.06005859 43.82128906 C67.62296347 49.47670046 67.24491875 55.3343044 67.1953125 61.15234375 C67.1924826 62.40761368 67.18965271 63.66288361 67.18673706 64.95619202 C67.17747127 68.27214347 67.15954299 71.58781301 67.1373291 74.90368652 C67.11676595 78.29579245 67.10771309 81.68792766 67.09765625 85.08007812 C67.07565121 91.7201392 67.04114964 98.36003109 67 105 C61.06 105 55.12 105 49 105 C48.98541748 103.48647949 48.97083496 101.97295898 48.95581055 100.41357422 C48.89776193 94.78882428 48.82052854 89.1644719 48.73754883 83.54003906 C48.70433053 81.1074876 48.67628901 78.67485963 48.65356445 76.2421875 C48.61996242 72.74185642 48.56764166 69.24222445 48.51171875 65.7421875 C48.50532883 64.65759247 48.4989389 63.57299744 48.49235535 62.45553589 C48.38558625 56.95042233 48.24114039 52.68127547 45 48 C40.31185997 44.87457331 35.48631561 45.43320183 30 46 C25.0328609 48.1287739 23.09761763 50.9404508 20.84265137 55.62255859 C19.28449688 60.01870762 19.39637846 64.44162112 19.390625 69.0625 C19.37408875 70.09439453 19.35755249 71.12628906 19.34051514 72.18945312 C19.29223739 75.45969719 19.27070866 78.7294769 19.25 82 C19.22182349 84.22788769 19.19189372 86.45575394 19.16015625 88.68359375 C19.0864835 94.12235758 19.03678518 99.56086667 19 105 C12.73 105 6.46 105 0 105 C0 70.35 0 35.7 0 0 Z " fill="#FBFCFE" transform="translate(665,502)"/>
<path d="M0 0 C6.27 0 12.54 0 19 0 C19 24.75 19 49.5 19 75 C13.06 75 7.12 75 1 75 C1 71.37 1 67.74 1 64 C-0.051875 65.0828125 -0.051875 65.0828125 -1.125 66.1875 C-8.96957802 73.96578582 -15.05663225 76.44352553 -26.01879883 76.43603516 C-31.94773249 76.27610772 -35.74833663 75.1009715 -40 71 C-40.74830078 70.27876953 -40.74830078 70.27876953 -41.51171875 69.54296875 C-46.0209205 64.64615653 -47.255447 59.49736345 -47.22705078 52.99462891 C-47.22689972 51.83387848 -47.22674866 50.67312805 -47.22659302 49.47720337 C-47.21627045 48.23949188 -47.20594788 47.0017804 -47.1953125 45.7265625 C-47.1924826 44.44768158 -47.18965271 43.16880066 -47.18673706 41.85116577 C-47.1774602 38.46779901 -47.15952183 35.08470674 -47.1373291 31.70141602 C-47.11679041 28.24237426 -47.10771826 24.78330404 -47.09765625 21.32421875 C-47.07563197 14.54939409 -47.04112034 7.77473459 -47 1 C-41.06 1 -35.12 1 -29 1 C-28.98018066 2.47799072 -28.96036133 3.95598145 -28.93994141 5.47875977 C-28.86369031 10.97860329 -28.7750028 16.47818899 -28.68261719 21.9777832 C-28.644408 24.35500995 -28.60954125 26.73229292 -28.578125 29.10961914 C-28.53229961 32.53291881 -28.47433332 35.95583411 -28.4140625 39.37890625 C-28.40251129 40.43646622 -28.39096008 41.49402618 -28.37905884 42.58363342 C-28.2707204 48.03885526 -28.08298074 52.91425236 -26 58 C-20.0972179 59.96759403 -13.43031743 59.46092227 -7.375 58.3125 C-4.83159501 57.18594028 -4.83159501 57.18594028 -3.75 54.6875 C-3.5025 53.800625 -3.255 52.91375 -3 52 C-2.66110748 51.22026321 -2.32221497 50.44052643 -1.97305298 49.63716125 C-0.9791557 46.94350792 -0.72731937 44.97258084 -0.68115234 42.11791992 C-0.66128265 41.17732224 -0.64141296 40.23672455 -0.62094116 39.2676239 C-0.60938995 38.2653627 -0.59783875 37.2631015 -0.5859375 36.23046875 C-0.56657135 35.19432938 -0.5472052 34.15819 -0.5272522 33.09065247 C-0.46759643 29.78968471 -0.42112669 26.48868181 -0.375 23.1875 C-0.33680737 20.94594855 -0.29775489 18.70441158 -0.2578125 16.46289062 C-0.16190623 10.97537833 -0.07782315 5.48779734 0 0 Z " fill="#FAFCFD" transform="translate(799,532)"/>
<path d="M0 0 C4.77267422 4.43176892 7.46991991 9.58939445 7.828125 16.16796875 C8.13998993 33.73504394 8.13998993 33.73504394 3.16015625 38.98046875 C-2.04575449 43.52450331 -5.66858979 43.77897589 -12.38671875 43.72265625 C-17.28592671 43.25515013 -19.82037757 41.04764466 -23.125 37.625 C-27.65365967 29.69984557 -27.83518717 18.2940345 -25.65234375 9.5390625 C-23.80347969 5.03292419 -21.63644521 1.99436713 -17.375 -0.5625 C-11.56237416 -2.36514979 -5.5370534 -2.56345065 0 0 Z " fill="#034CAE" transform="translate(884.375,548.5625)"/>
</svg>
