<svg width="83" height="32" viewBox="0 0 83 32" fill="none" xmlns="http://www.w3.org/2000/svg">
<g opacity="0.3" clip-path="url(#clip0_1669_463)">
<path d="M0.303711 0.446289H6.24396V6.41618H0.303711V0.446289Z" fill="#202430"/>
<path d="M6.09623 31.5512V10.0297H0.451904V31.5299H6.09631L6.09623 31.5512ZM43.4714 31.7636V26.4948C42.6469 26.4948 41.9493 26.4523 41.442 26.3674C40.85 26.2824 40.4061 26.0699 40.1101 25.7725C39.8141 25.4751 39.6239 25.0501 39.5182 24.4765C39.4337 23.9453 39.3914 23.2443 39.3914 22.3945V14.8949H43.4714V10.0297H39.3913V1.65911H33.7469V22.4583C33.7469 24.2216 33.895 25.7087 34.1909 26.8985C34.4869 28.067 34.9943 29.023 35.6919 29.7453C36.3894 30.4677 37.3196 30.9775 38.44 31.2963C39.5816 31.6149 41.0191 31.7636 42.7314 31.7636H43.4714ZM75.773 31.5512V0.00195312H70.1286V31.5512H75.773ZM28.3142 12.1543C26.7499 10.4546 24.5513 9.60483 21.7609 9.60483C20.408 9.60483 19.1607 9.88103 18.0614 10.4334C16.9411 10.9858 16.0109 11.7506 15.2499 12.7278L14.9539 13.1315V10.0297H9.39416V31.5299H14.9961V20.0787V20.4824C15.0596 18.4641 15.5458 16.9769 16.4759 16.0209C17.4696 15.0011 18.6744 14.4913 20.0486 14.4913C21.6764 14.4913 22.9236 15.0011 23.7481 15.9784C24.5513 16.9557 24.9741 18.3366 24.9741 20.1V31.5299H30.6607V19.3351C30.6819 16.2758 29.8786 13.8539 28.3142 12.1543ZM67.2112 20.7585C67.2112 19.2077 66.9365 17.763 66.408 16.4033C65.8583 15.0648 65.0973 13.8751 64.146 12.8553C63.1736 11.8356 62.0109 11.0495 60.658 10.4759C59.305 9.90223 57.8041 9.62603 56.1763 9.62603C54.6331 9.62603 53.1744 9.92351 51.8215 10.4971C50.4686 11.092 49.2847 11.8781 48.2912 12.8766C47.2976 13.8751 46.4943 15.0649 45.9235 16.4246C45.3316 17.7843 45.0567 19.2502 45.0567 20.8011C45.0567 22.352 45.3317 23.8179 45.8812 25.1776C46.4308 26.5373 47.2131 27.727 48.1855 28.7256C49.1579 29.7241 50.3629 30.5314 51.7581 31.105C53.1533 31.6999 54.6965 31.9974 56.3455 31.9974C61.123 31.9974 64.0825 29.8091 65.8583 27.7695L61.7995 24.6677C60.9539 25.6875 58.9245 27.0685 56.3877 27.0685C54.8022 27.0685 53.4916 26.7072 52.498 25.9637C51.5044 25.2413 50.8279 24.2216 50.4685 22.9681L50.4051 22.7769H67.2112V20.7585ZM50.4474 18.7828C50.4474 17.2106 52.2443 14.47 56.1129 14.4488C59.9814 14.4488 61.7995 17.1894 61.7995 18.7615L50.4474 18.7828ZM82.1995 28.8318C82.0938 28.5769 81.9459 28.3644 81.7556 28.1732C81.5653 27.982 81.3539 27.8333 81.1003 27.727C80.8466 27.6208 80.5718 27.5571 80.2969 27.5571C80.001 27.5571 79.7474 27.6208 79.4937 27.727C79.24 27.8333 79.0285 27.982 78.8383 28.1732C78.6481 28.3644 78.5001 28.5769 78.3944 28.8318C78.2887 29.0867 78.2253 29.3629 78.2253 29.6391C78.2253 29.9365 78.2887 30.1914 78.3944 30.4465C78.5001 30.7013 78.6481 30.9138 78.8383 31.105C79.0285 31.2963 79.24 31.445 79.4937 31.5512C79.7473 31.6574 80.0222 31.7211 80.2969 31.7211C80.5929 31.7211 80.8466 31.6574 81.1003 31.5512C81.3539 31.445 81.5653 31.2963 81.7556 31.105C81.9459 30.9138 82.0938 30.7014 82.1996 30.4465C82.3054 30.1915 82.3687 29.9153 82.3687 29.639C82.3687 29.3627 82.3052 29.0867 82.1996 28.8318H82.1995ZM81.8613 30.319C81.7768 30.5314 81.6499 30.7226 81.5019 30.8714C81.3539 31.0201 81.1637 31.1475 80.9523 31.2325C80.7409 31.3175 80.5295 31.3599 80.2758 31.3599C80.0433 31.3599 79.8107 31.3175 79.5994 31.2325C79.3881 31.1476 79.1977 31.0201 79.0497 30.8713C78.9018 30.7226 78.7749 30.5314 78.6903 30.319C78.6058 30.1065 78.5635 29.894 78.5635 29.6391C78.5635 29.4054 78.6058 29.1717 78.6904 28.9593C78.7749 28.7468 78.9018 28.5556 79.0497 28.4069C79.1977 28.2582 79.388 28.1307 79.5994 28.0456C79.8107 27.9607 80.0221 27.9182 80.2758 27.9182C80.5083 27.9182 80.7409 27.9608 80.9523 28.0457C81.1637 28.1307 81.3539 28.2582 81.5019 28.407C81.6499 28.5556 81.7768 28.7467 81.8613 28.9593C81.9459 29.1718 81.9881 29.3842 81.9881 29.6391C81.9881 29.894 81.9459 30.1065 81.8613 30.319ZM80.6775 29.8303C80.8465 29.8091 80.9734 29.7453 81.0791 29.6391C81.1848 29.5329 81.2482 29.3842 81.2482 29.1717C81.2482 28.938 81.1848 28.768 81.0368 28.6406C80.91 28.5131 80.6775 28.4493 80.4026 28.4493H79.4725V30.8501H79.9165V29.8728H80.2335L80.8254 30.8501H81.2905L80.6775 29.8303ZM80.4449 29.4691H79.9163V28.7893H80.4448C80.5083 28.7893 80.5717 28.8105 80.6351 28.8318C80.6986 28.8531 80.7408 28.8955 80.7619 28.938C80.8043 28.9805 80.8043 29.0442 80.8043 29.1292C80.8043 29.2141 80.7831 29.278 80.7619 29.3204C80.7197 29.3629 80.6774 29.4054 80.6351 29.4267C80.5717 29.4479 80.5083 29.4691 80.4448 29.4691H80.4449Z" fill="#202430"/>
</g>
<defs>
<clipPath id="clip0_1669_463">
<rect width="82.0647" height="32" fill="white" transform="translate(0.303711)"/>
</clipPath>
</defs>
</svg>
