<svg width="109" height="32" viewBox="0 0 109 32" fill="none" xmlns="http://www.w3.org/2000/svg">
<g opacity="0.3">
<path d="M11.6359 31.6074C11.0603 31.6074 10.7719 31.3594 10.7719 30.861V30.7045C10.7719 30.3914 11.0352 29.9195 11.5606 29.291C12.111 28.6373 12.3863 27.9823 12.3863 27.3286V6.68086H10.3961C9.82052 6.68086 9.29516 6.93008 8.81886 7.42731C8.37332 7.91675 8.00594 8.47276 7.72984 9.07552C7.47853 9.65101 7.16738 10.188 6.79161 10.6852C6.41584 11.1824 6.04007 11.4316 5.66429 11.4316H5.02644C4.32516 11.4316 4.01162 11.0512 4.08701 10.2927L4.83855 4.95319C4.91275 4.14294 5.33879 3.7372 6.11546 3.7372H25.4186C26.169 3.7372 26.595 4.14294 26.6943 4.95319L27.4842 10.3312C27.5332 10.672 27.471 10.9465 27.2951 11.1559C27.1204 11.3389 26.8703 11.4304 26.5447 11.4304H25.9057C25.5311 11.4304 25.1553 11.1824 24.7796 10.684C24.4038 10.1856 24.0783 9.65101 23.803 9.07552C23.5278 8.47354 23.152 7.92454 22.6769 7.42611C22.2006 6.93008 21.6753 6.68086 21.0996 6.68086H19.1466V27.3286C19.1466 27.9823 19.4099 28.6373 19.9352 29.291C20.4857 29.9195 20.761 30.3902 20.761 30.7045V30.861C20.761 31.3594 20.4618 31.6074 19.8598 31.6074H11.6359ZM43.4305 27.3286C43.5059 27.9571 43.6435 28.4675 43.8434 28.86C44.0696 29.226 44.2814 29.462 44.4824 29.5667C44.7074 29.6715 44.9073 29.8015 45.0832 29.9592C45.2579 30.1157 45.3465 30.312 45.3465 30.548C45.3465 31.4112 43.932 31.8434 41.1029 31.8434C39.9505 31.8434 39.0864 31.6989 38.5108 31.41C37.9603 31.1235 37.6097 30.6395 37.4601 29.9592C36.5075 31.3197 34.9182 31.9999 32.6899 31.9999C30.5873 31.9999 28.8724 31.4895 27.544 30.4685C26.2432 29.4488 25.5933 27.9703 25.5933 26.0332C25.5933 24.149 26.2432 22.6838 27.544 21.6363C28.8472 20.5648 30.4497 20.0278 32.3524 20.0278C33.8292 20.0278 35.0929 20.3541 36.1461 21.0091V20.8911C35.8948 18.3002 35.6075 16.5472 35.2808 15.6298C34.9817 14.7148 34.3797 14.2573 33.4786 14.2573C32.9029 14.2573 32.4398 14.5318 32.0892 15.0808C31.7352 15.6383 31.4692 16.2474 31.3005 16.8867C31.1452 17.5515 30.8365 18.1702 30.3994 18.6927C29.9482 19.2429 29.3475 19.5174 28.5971 19.5174C27.8204 19.5174 27.1826 19.2814 26.6824 18.8107C26.2061 18.3399 25.9679 17.7247 25.9679 16.9662C25.9679 15.448 26.6943 14.3091 28.146 13.5506C29.5976 12.7656 31.3759 12.3731 33.4786 12.3731C35.9821 12.3731 38.0477 13.0919 39.6752 14.5318C41.3267 15.9453 42.3044 17.868 42.6048 20.3023L43.4305 27.3286ZM34.7555 29.9978C35.3311 29.9978 35.7942 29.71 36.1449 29.1345C36.5206 28.559 36.7073 27.9041 36.7073 27.1721L36.5577 25.3662C36.3076 23.1942 35.5321 22.1083 34.2301 22.1083C33.6545 22.1083 33.1913 22.3563 32.8407 22.8547C32.4901 23.3243 32.3142 23.966 32.3142 24.7774C32.3142 26.2426 32.5272 27.4863 32.9532 28.5061C33.4032 29.5005 34.0051 29.999 34.7555 29.999V29.9978ZM46.9908 31.6074C46.414 31.6074 46.1267 31.3594 46.1267 30.861V30.7045C46.1267 30.3914 46.3637 29.9195 46.84 29.291C47.3402 28.6373 47.5903 27.9823 47.5903 27.3286V9.38975C47.5903 8.70952 47.3402 8.05457 46.84 7.42731C46.3637 6.77236 46.1267 6.31486 46.1267 6.0524V5.89589C46.1267 5.60694 46.402 5.30595 46.9525 4.99292L52.6226 2.08779C53.1491 1.85302 53.562 1.83978 53.8624 2.04927C54.1879 2.23227 54.3506 2.52001 54.3506 2.9125V27.3286C54.3506 27.9823 54.6259 28.6373 55.1764 29.291C55.7269 29.9195 56.0021 30.3902 56.0021 30.7045V30.861C56.0021 31.3594 55.7029 31.6074 55.1022 31.6074H46.9908ZM77.5862 28.3098C77.7119 28.4928 78.0877 28.8335 78.7135 29.3308C79.3646 29.828 79.6901 30.2855 79.6901 30.7045V30.861C79.6901 31.3594 79.4029 31.6074 78.826 31.6074H70.9396C70.364 31.6074 70.0756 31.3462 70.0756 30.8225V30.7045C70.0756 30.3914 70.2635 30.011 70.6393 29.5655C71.015 29.096 71.0904 28.6758 70.8642 28.3098L67.5601 23.1677L65.6812 24.9737V27.3286C65.6812 27.9823 65.9565 28.6373 66.5082 29.291C67.0838 29.9195 67.3722 30.3902 67.3722 30.7045V30.861C67.3722 31.3594 67.0718 31.6074 66.4711 31.6074H58.3585C57.7577 31.6074 57.4573 31.3594 57.4573 30.861V30.7045C57.4573 30.3914 57.7086 29.9195 58.2089 29.291C58.7091 28.6373 58.9604 27.9823 58.9604 27.3286V9.38975C58.9604 8.70952 58.6588 8.05457 58.0581 7.42731C57.4573 6.77236 57.157 6.31486 57.157 6.0524V5.89589C57.157 5.60694 57.4322 5.30595 57.9827 4.99292L63.9938 2.08779C64.5192 1.87831 64.9321 1.86627 65.2324 2.04927C65.5328 2.23227 65.6836 2.52001 65.6836 2.9125V21.5581L70.7529 17.0047C71.0533 16.7952 71.1658 16.534 71.0916 16.2198C71.0458 15.9148 70.9156 15.629 70.7158 15.3951C70.5202 15.1041 70.32 14.8163 70.1151 14.5318C69.914 14.2188 69.8147 13.9419 69.8147 13.7071V13.5506C69.8147 13.0269 70.1019 12.7656 70.6775 12.7656H76.6121C77.1865 12.7656 77.4749 13.0136 77.4749 13.5121V13.6686C77.4749 13.9816 77.3002 14.3091 76.9496 14.6498C76.5989 14.9628 76.0987 15.3433 75.4477 15.7875C74.9131 16.1345 74.4104 16.529 73.9458 16.9662L71.5416 19.2814L77.5862 28.3098ZM85.1591 10.4492C83.8822 10.4492 82.8434 10.0832 82.0416 9.35002C81.2398 8.59153 80.8401 7.64884 80.8401 6.52435C80.8401 5.39865 81.241 4.46921 82.0416 3.7372C82.8434 2.97872 83.8822 2.59827 85.1591 2.59827C86.4109 2.59827 87.4377 2.97751 88.2383 3.7372C89.0401 4.46921 89.4398 5.39865 89.4398 6.52435C89.4398 7.64884 89.0401 8.59153 88.2383 9.35002C87.4365 10.0832 86.4109 10.4492 85.1591 10.4492ZM81.1405 31.6074C80.5398 31.6074 80.2394 31.3594 80.2394 30.861V30.7045C80.2394 30.3914 80.4907 29.9063 80.9909 29.2525C81.4911 28.5988 81.7413 27.9438 81.7413 27.2901V19.8316C81.7413 19.1514 81.4911 18.4964 80.9909 17.8692C80.4895 17.2142 80.2394 16.7688 80.2394 16.5328V16.3763C80.2394 16.0632 80.5266 15.7623 81.1034 15.4733L86.7735 12.5694C87.3 12.3334 87.7129 12.3069 88.0133 12.4911C88.3137 12.6741 88.4645 12.9751 88.4645 13.3941V27.2901C88.4645 27.9438 88.7397 28.5976 89.2902 29.2525C89.8658 29.9063 90.1542 30.3902 90.1542 30.7045V30.861C90.1542 31.3582 89.8407 31.6074 89.2148 31.6074H81.1405ZM99.5629 31.9999C97.6601 31.9999 96.1594 31.3715 95.0572 30.1157C93.9802 28.86 93.4416 27.0673 93.4416 24.7377V15.4348H92.0151C91.7805 15.4403 91.5525 15.3559 91.3773 15.1988C91.2251 15.0108 91.1449 14.7742 91.1511 14.5318V13.6686C91.1511 13.0666 91.4395 12.7656 92.0151 12.7656H92.7284C93.8808 12.7656 94.8705 12.4117 95.6963 11.7061C96.522 10.9717 97.0605 10.005 97.3106 8.80102C97.4363 8.12078 97.7738 7.78007 98.3243 7.78007H99.1883C99.8645 7.78007 100.202 8.12078 100.202 8.80102V12.7656H104.071C104.321 12.7656 104.521 12.8571 104.672 13.0401C104.846 13.1966 104.935 13.4061 104.935 13.6686V14.5318C104.937 14.655 104.915 14.7775 104.87 14.892C104.825 15.0065 104.757 15.1108 104.672 15.1988C104.593 15.2781 104.5 15.3401 104.396 15.3808C104.293 15.4214 104.182 15.4398 104.071 15.4348H100.202V24.8557C100.202 25.5094 100.365 26.0332 100.69 26.4256C101.016 26.7928 101.417 26.9758 101.892 26.9758C102.969 26.9758 103.795 26.4919 104.371 25.5227C104.546 25.2879 104.746 25.1567 104.972 25.1302C105.197 25.0784 105.385 25.1181 105.535 25.2482C105.71 25.3794 105.798 25.5612 105.798 25.7984C105.798 27.4466 105.235 28.8986 104.108 30.1555C103.007 31.3847 101.492 31.9999 99.5629 31.9999Z" fill="#202430"/>
</g>
</svg>
