<svg width="183" height="24" viewBox="0 0 183 24" fill="none" xmlns="http://www.w3.org/2000/svg">
<g opacity="0.3" clip-path="url(#clip0_1669_467)">
<path d="M156.203 9.52369V23.9861H160.791V14.3445H177.571V23.9861H182.16V9.52369H156.203ZM160.267 4.83496H177.965C180.455 4.3727 182.225 2.12739 182.75 0.0141602H155.482C156.006 2.12739 157.841 4.30666 160.267 4.83496ZM142.241 23.9861C144.535 22.9955 145.781 21.2785 146.305 19.2974H125.657V0.0801986H121.003V23.9861H142.241ZM86.5908 4.76893H102.978C105.469 4.0425 107.501 2.12739 108.025 0.0801986H82.068V14.2124H103.305V19.1653H86.6563C84.0344 19.8917 81.8058 21.6748 80.6914 23.9861H107.894V9.52369H86.6563L86.5908 4.76893ZM46.2132 4.83496H63.9112C66.402 4.3727 68.2373 2.12739 68.6962 0.0141602H41.3627C41.8871 2.12739 43.7224 4.30666 46.2132 4.83496ZM46.2132 14.2785H63.9112C66.402 13.8162 68.2373 11.5709 68.6962 9.45765H41.3627C41.8871 11.5709 43.7224 13.7502 46.2132 14.2785ZM46.2132 23.9861H63.9112C66.402 23.5238 68.2373 21.2785 68.6962 19.1653H41.3627C41.8871 21.2785 43.7224 23.5238 46.2132 23.9861Z" fill="#202430"/>
<path d="M0.133057 0.0801986C0.65744 2.19343 2.49278 4.30666 4.91806 4.83496H12.3905L12.7838 4.96704V23.9201H17.4377V4.96704L17.831 4.83496H25.3035C27.7943 4.17458 29.5641 2.19343 30.0885 0.0801986V0.0141602L0.133057 0.0801986Z" fill="#202430"/>
</g>
<defs>
<clipPath id="clip0_1669_467">
<rect width="182.682" height="24" fill="white" transform="translate(0.133057)"/>
</clipPath>
</defs>
</svg>
