<svg width="118" height="28" viewBox="0 0 118 28" fill="none" xmlns="http://www.w3.org/2000/svg">
<g opacity="0.3" clip-path="url(#clip0_1669_472)">
<path d="M27.946 26.1392H21.4896L19.5145 21.335H8.75424L6.95475 26.1392H0.604736L10.306 1.87487H17.2562L27.946 26.1392ZM13.8695 7.67292L10.3417 17.1007H17.7505L13.8695 7.67292ZM51.399 1.87487H56.6202V26.1392H50.6221V10.983L44.1308 18.5959H43.2139L36.723 10.983V26.1389H30.7248V1.87487H35.9461L43.6719 10.8759L51.399 1.87487ZM71.8181 1.87487C80.6022 1.87487 85.1172 7.38866 85.1172 14.0417C85.1172 21.0147 80.7432 26.1392 71.1474 26.1392H61.1984V1.87487H71.8181ZM67.1961 21.692H71.1114C77.1442 21.692 78.9437 17.5641 78.9437 14.0057C78.9437 9.84275 76.7208 6.32151 71.0409 6.32151H67.196V21.692H67.1961ZM97.0502 7.62816L89.4873 0H117.02V27.7664L109.457 20.1391V7.62816H97.0502ZM97.0413 9.1567L89.2549 17.0086V28H100.153L107.939 20.1481H97.0413V9.1567Z" fill="#202430"/>
</g>
<defs>
<clipPath id="clip0_1669_472">
<rect width="116.465" height="28" fill="white" transform="translate(0.579712)"/>
</clipPath>
</defs>
</svg>
