<svg width="1762" height="1646" viewBox="0 0 1762 1646" fill="none" xmlns="http://www.w3.org/2000/svg">
<path opacity="0.7" d="M1059 756.244L1574.76 502.214L1574.76 812.252L1059.22 1064.48L1059 756.244Z" fill="#F8F8FD" stroke="#CCCCF5" stroke-width="4"/>
<path d="M1066.97 283.383L1636.01 3.24152L1758.48 254.344L1067.23 591.488L1066.97 283.383Z" fill="#F8F8FD" stroke="#CCCCF5" stroke-width="4"/>
<path d="M909.004 486.244L1424.77 232.214L1424.77 582.252L909.228 834.484L909.004 486.244Z" fill="#F8F8FD" stroke="#CCCCF5" stroke-width="4"/>
<path d="M640.004 853.244L1155.77 599.214L1155.77 909.252L640.228 1161.48L640.004 853.244Z" fill="#F8F8FD" stroke="#CCCCF5" stroke-width="4"/>
<path d="M2.00373 1294.24L517.766 1040.21L517.766 1390.25L2.22826 1642.48L2.00373 1294.24Z" fill="#F8F8FD" stroke="#CCCCF5" stroke-width="4"/>
<path d="M135.973 989.383L705.008 709.242L827.479 960.344L136.229 1297.49L135.973 989.383Z" fill="#F8F8FD" stroke="#CCCCF5" stroke-width="4"/>
</svg>
